<svg width="46" height="46" viewBox="0 0 46 46" fill="none" xmlns="http://www.w3.org/2000/svg">
<circle cx="23" cy="23" r="23" fill="#D9D9D9"/>
<path d="M14.1378 30V16.9091H19.3026C20.2912 16.9091 21.1349 17.0859 21.8338 17.4396C22.5369 17.7891 23.0717 18.2855 23.4382 18.929C23.8089 19.5682 23.9943 20.3203 23.9943 21.1854C23.9943 22.0547 23.8068 22.8026 23.4318 23.429C23.0568 24.0511 22.5135 24.5284 21.8018 24.8608C21.0945 25.1932 20.2379 25.3594 19.2322 25.3594H15.7741V23.1349H18.7848C19.3132 23.1349 19.7521 23.0625 20.1016 22.9176C20.451 22.7727 20.7109 22.5554 20.8814 22.2656C21.0561 21.9759 21.1435 21.6158 21.1435 21.1854C21.1435 20.7507 21.0561 20.3842 20.8814 20.0859C20.7109 19.7876 20.4489 19.5618 20.0952 19.4084C19.7457 19.2507 19.3047 19.1719 18.772 19.1719H16.9055V30H14.1378ZM21.2074 24.0426L24.4609 30H21.4055L18.2223 24.0426H21.2074ZM25.8991 30V20.1818H28.5391V21.8949H28.6413C28.8203 21.2855 29.1207 20.8253 29.5426 20.5142C29.9645 20.1989 30.4503 20.0412 31 20.0412C31.1364 20.0412 31.2834 20.0497 31.4411 20.0668C31.5987 20.0838 31.7372 20.1072 31.8565 20.1371V22.5533C31.7287 22.5149 31.5518 22.4808 31.326 22.451C31.1001 22.4212 30.8935 22.4062 30.706 22.4062C30.3054 22.4062 29.9474 22.4936 29.6321 22.6683C29.321 22.8388 29.0739 23.0774 28.8906 23.3842C28.7116 23.6911 28.6222 24.0447 28.6222 24.4453V30H25.8991Z" fill="#2A2A2A"/>
</svg>
