<svg width="33" height="32" viewBox="0 0 33 32" fill="none" xmlns="http://www.w3.org/2000/svg">
<path d="M26.7336 15.9998C26.7336 16.5518 26.2856 16.9998 25.7336 16.9998H17.4002V25.3332C17.4002 25.8852 16.9522 26.3332 16.4002 26.3332C15.8482 26.3332 15.4002 25.8852 15.4002 25.3332V16.9998H7.06689C6.51489 16.9998 6.06689 16.5518 6.06689 15.9998C6.06689 15.4478 6.51489 14.9998 7.06689 14.9998H15.4002V6.6665C15.4002 6.1145 15.8482 5.6665 16.4002 5.6665C16.9522 5.6665 17.4002 6.1145 17.4002 6.6665V14.9998H25.7336C26.2856 14.9998 26.7336 15.4478 26.7336 15.9998Z" fill="#2A2A2A"/>
</svg>
