<svg width="24" height="24" viewBox="0 0 24 24" fill="none" xmlns="http://www.w3.org/2000/svg">
<g clip-path="url(#clip0_366_1010)">
<path d="M11 21.4C10.6 21.4 10.3 21.3 9.9 21.1C9.3 20.7 9 20.1 9 19.4V13.4L3.6 8C3.2 7.6 3 7.1 3 6.6V5C3 3.9 3.9 3 5 3H7.5C8.1 3 8.5 3.4 8.5 4C8.5 4.6 8.1 5 7.5 5H5V6.6L10.4 12C10.8 12.4 11 12.9 11 13.4V19.4L13 18.4V13.4C13 12.9 13.2 12.4 13.6 12L14.8 10.8C15.2 10.4 15.8 10.4 16.2 10.8C16.6 11.2 16.6 11.8 16.2 12.2L15 13.4V18.4C15 19.2 14.6 19.8 13.9 20.2L11.9 21.2C11.6 21.3 11.3 21.4 11 21.4ZM18 10C17.7 10 17.5 9.9 17.3 9.7C16.9 9.3 16.9 8.7 17.3 8.3L19 6.6V5H13C12.4 5 12 4.6 12 4C12 3.4 12.4 3 13 3H19C20.1 3 21 3.9 21 5V6.6C21 7.1 20.8 7.6 20.4 8L18.7 9.7C18.5 9.9 18.3 10 18 10Z" fill="white"/>
<path d="M19 16C18.7 16 18.5 15.9 18.3 15.7L4.3 1.7C3.9 1.3 3.9 0.7 4.3 0.3C4.7 -0.1 5.3 -0.1 5.7 0.3L19.7 14.3C20.1 14.7 20.1 15.3 19.7 15.7C19.5 15.9 19.3 16 19 16Z" fill="white"/>
</g>
<defs>
<clipPath id="clip0_366_1010">
<rect width="24" height="24" fill="white"/>
</clipPath>
</defs>
</svg>
